<?xml version="1.0" encoding="utf-8"?>
<svg viewBox="0 0 500 500" xmlns="http://www.w3.org/2000/svg">
  <defs>
    <radialGradient id="gradient-2" gradientUnits="userSpaceOnUse" cx="250" cy="242.143" r="199.876" gradientTransform="matrix(0.717293, 0, 0, 1.494859, 70.590173, -85.940618)">
      <stop offset="0" style="stop-color: rgba(216, 216, 216, 1)"/>
      <stop offset="1" style="stop-color: rgb(124, 124, 124);"/>
    </radialGradient>
  </defs>
  <path style="stroke: rgb(0, 0, 0); fill: url(#gradient-2);" d="M 250.247 475.507 C 208.648 475.507 79.789 466.14 52.422 457.459 C -13.907 178.868 40.164 329.646 97.949 400.159 C 138.362 449.472 151.485 445.503 185.47 398.982 C 204.331 373.166 170 370.762 173.694 342.86 C 179.32 300.343 139.577 323.76 144.656 290.269 C 154.156 227.637 134.177 198.199 45.75 201.183 C -8.635 203.018 143.435 118.94 20.42 106.031 C -16.869 102.118 38.254 21.737 120.498 144.103 C 172.86 193.033 184.823 157.597 203.129 86.188 C 218.813 25.002 218.431 71.216 250.247 67.339 C 282.063 71.055 281.681 24.841 297.365 86.027 C 315.67 157.436 327.634 192.872 379.996 143.942 C 462.24 21.576 517.362 101.957 480.074 105.87 C 357.058 118.779 509.129 202.857 454.744 201.022 C 366.317 198.038 346.337 227.476 355.837 290.108 C 360.917 323.599 321.173 300.182 326.8 342.699 C 330.493 370.601 296.163 373.005 315.023 398.821 C 349.009 445.342 362.132 449.311 402.544 399.998 C 460.329 329.485 514.4 178.707 448.071 457.298 C 420.705 465.979 286.649 475.507 250.247 475.507 Z"/>
</svg>