<?xml version="1.0" encoding="utf-8"?>
<svg viewBox="0 0 500 500" xmlns="http://www.w3.org/2000/svg">
  <defs>
    <radialGradient id="gradient-2" gradientUnits="userSpaceOnUse" cx="250" cy="242.143" r="199.876" gradientTransform="matrix(0.717293, 0, 0, 1.494859, 70.650175, -109.946861)">
      <stop offset="0" style="stop-color: rgba(216, 216, 216, 1)"/>
      <stop offset="1" style="stop-color: rgb(124, 124, 124);"/>
    </radialGradient>
  </defs>
  <path style="stroke: rgb(0, 0, 0); fill: url(#gradient-2);" d="M 249.999 450.586 C 213.107 457.614 90.225 499.531 70.706 475.811 C 239.023 447.319 181.322 422.663 106.029 439.704 C 30.95 456.697 218.274 309.117 205.324 287.035 C 175.397 236.005 142.862 400.362 124.474 345.514 C 112.879 310.929 204.332 249.157 202.97 214.429 C 199.504 126.031 166.381 272.721 148.021 247.791 C 124.263 215.532 171.78 197.867 169 169.909 C 167.057 150.369 10.573 176.382 66.568 76.897 C 118.103 133.236 218.289 159.987 149.984 90.41 C 62.727 1.528 220.284 13.401 249.999 25.149 C 279.715 13.269 437.272 1.396 350.015 90.278 C 281.71 159.855 381.896 133.104 433.431 76.765 C 489.426 176.25 332.942 150.237 330.999 169.777 C 328.219 197.735 375.736 215.4 351.978 247.659 C 333.618 272.589 300.495 125.899 297.029 214.297 C 295.667 249.025 387.12 310.797 375.525 345.382 C 357.137 400.23 324.602 235.873 294.675 286.903 C 281.725 308.985 469.049 456.565 393.97 439.572 C 318.677 422.531 260.976 447.187 429.293 475.679 C 409.774 499.399 286.891 457.614 249.999 450.586 Z"/>
</svg>