<?xml version="1.0" encoding="utf-8"?>
<svg viewBox="0 0 500 500" xmlns="http://www.w3.org/2000/svg">
  <defs>
    <radialGradient id="gradient-2" gradientUnits="userSpaceOnUse" cx="250" cy="242.143" r="199.876" gradientTransform="matrix(0.717293, 0, 0, 1.494859, 70.590173, -85.940618)">
      <stop offset="0" style="stop-color: rgba(216, 216, 216, 1)"/>
      <stop offset="1" style="stop-color: rgb(124, 124, 124);"/>
    </radialGradient>
  </defs>
  <path style="stroke: rgb(0, 0, 0); fill: url(#gradient-2);" d="M 250 460.513 C 213.989 439.688 79.295 466.079 51.929 457.398 C -14.4 178.807 39.671 329.585 97.456 400.098 C 137.868 449.411 150.991 445.442 184.977 398.921 C 203.837 373.105 169.507 370.701 173.2 342.799 C 178.827 300.282 163.911 320.9 162.216 287.068 C 159.756 237.956 128.855 303.729 74.298 268.626 C 28.398 239.092 57.138 237.568 34.054 154.636 C 15.027 86.28 17.618 -72.043 79.187 169.945 C 142.73 221.833 206.621 166.015 126.497 110.459 C 27.429 41.767 205.365 26.838 250 49.205 C 294.635 26.738 472.571 41.667 373.503 110.359 C 293.379 165.915 357.27 221.733 420.813 169.845 C 482.382 -72.143 484.973 86.18 465.946 154.536 C 442.862 237.468 471.602 238.992 425.702 268.526 C 371.145 303.629 340.244 237.856 337.784 286.968 C 336.089 320.8 321.173 300.182 326.8 342.699 C 330.493 370.601 296.163 373.005 315.023 398.821 C 349.009 445.342 362.132 449.311 402.544 399.998 C 460.329 329.485 514.4 178.707 448.071 457.298 C 420.705 465.979 286.011 439.688 250 460.513 Z"/>
</svg>