<?xml version="1.0" encoding="utf-8"?>
<svg viewBox="0 0 500 500" xmlns="http://www.w3.org/2000/svg">
  <defs>
    <radialGradient id="gradient-0" gradientUnits="userSpaceOnUse" cx="250" cy="242.143" r="199.876" gradientTransform="matrix(0.717293, 0, 0, 1.494859, 70.676694, -111.969793)">
      <stop offset="0" style="stop-color: rgba(216, 216, 216, 1)"/>
      <stop offset="1" style="stop-color: rgb(124, 124, 124);"/>
    </radialGradient>
  </defs>
  <path style="stroke: rgb(0, 0, 0); fill: url(#gradient-0);" d="M 250 51.503 C 286.892 44.475 368.2 1.925 387.719 25.645 C 360.401 22.61 371.508 92.27 346.901 114.342 C 322.906 135.866 351.951 149.946 319.035 178.314 C 279.058 212.767 328.121 218.049 346.509 272.897 C 358.104 307.482 308.601 320.549 332.379 345.896 C 352.94 367.815 435.912 179.186 446.981 200.684 C 461.978 229.81 414.502 353.853 400.669 382.002 C 386.009 411.833 394.93 506.353 360.638 475.409 C 317.959 436.897 267.792 480.599 250 476.94 C 232.208 480.513 182.041 436.811 139.362 475.323 C 105.07 506.267 113.991 411.747 99.331 381.916 C 85.498 353.767 38.022 229.724 53.019 200.598 C 64.088 179.1 147.06 367.729 167.621 345.81 C 191.399 320.463 141.896 307.396 153.491 272.811 C 171.879 217.963 220.942 212.681 180.965 178.228 C 148.049 149.86 177.094 135.78 153.099 114.256 C 128.492 92.184 139.599 22.524 112.281 25.559 C 131.8 1.839 213.108 44.475 250 51.503 Z" transform="matrix(-1, 0, 0, -1, 499.999981, 499.99955)"/>
</svg>