<?xml version="1.0" encoding="utf-8"?>
<svg viewBox="0 0 500 500" xmlns="http://www.w3.org/2000/svg" xmlns:bx="https://boxy-svg.com">
  <defs>
    <radialGradient id="gradient-0" gradientUnits="userSpaceOnUse" cx="120.613" cy="91.347" r="38.306" gradientTransform="matrix(2.464055, -0.000153, 0.000095, 1.534003, -0.008226, 84.975363)">
      <stop offset="0" style="stop-color: rgb(255, 255, 255);"/>
      <stop offset="1" style="stop-color: rgb(233, 233, 233);"/>
    </radialGradient>
    <radialGradient id="gradient-1" gradientUnits="userSpaceOnUse" cx="120.613" cy="91.347" r="38.306" gradientTransform="matrix(-2.464052, 0.000152, -0.0001, -1.534003, 0.008492, -84.975402)">
      <stop offset="0" style="stop-color: rgb(255, 255, 255);"/>
      <stop offset="1" style="stop-color: rgb(233, 233, 233);"/>
    </radialGradient>
  </defs>
  <ellipse transform="matrix(1, 0.000062, -0.000062, 1, -171.098319, 25.083617)" cx="297.197" cy="225.084" rx="94.388" ry="54.209" style="fill: url(#gradient-0);" bx:origin="0.501 1.055"/>
  <ellipse transform="matrix(1, 0.000016, -0.000016, 1, -100.857707, 13.732279)" cx="240.343" cy="243.751" rx="35.601" ry="35.601" style="fill: rgb(141, 141, 141);"/>
  <ellipse transform="matrix(1.000001, 0.000026, -0.000024, 1, -98.357342, -11.455906)" cx="237.845" cy="268.937" rx="21.499" ry="21.499"/>
  <ellipse transform="matrix(1, -0.000062, -0.000062, -1, 671.098397, 24.711531)" cx="-297.197" cy="-225.084" rx="94.388" ry="54.209" style="fill: url(#gradient-1);" bx:origin="0.501 1.055"/>
  <ellipse transform="matrix(1, 0.000015, -0.000015, 1, 120.178383, 13.359774)" cx="240.343" cy="243.751" rx="35.601" ry="35.601" style="fill: rgb(141, 141, 141);"/>
  <ellipse transform="matrix(0.999999, -0.000023, -0.000017, -1.000001, 598.358882, -11.828133)" cx="-237.846" cy="-268.937" rx="21.499" ry="21.499"/>
</svg>
