<?xml version="1.0" encoding="utf-8"?>
<svg viewBox="104.36 95.595 193.405 88" xmlns="http://www.w3.org/2000/svg" xmlns:bx="https://boxy-svg.com">
  <defs>
    <radialGradient id="gradient-0" gradientUnits="userSpaceOnUse" cx="120.613" cy="91.347" r="38.306" gradientTransform="matrix(1.019981, -0.00006, 0.000039, 0.605482, -0.003514, 33.540425)">
      <stop offset="0" style="stop-color: rgb(255, 255, 255);"/>
      <stop offset="1" style="stop-color: rgb(233, 233, 233);"/>
    </radialGradient>
    <radialGradient id="gradient-1" gradientUnits="userSpaceOnUse" cx="120.613" cy="91.347" r="38.306" gradientTransform="matrix(-1.019981, 0.00006, -0.000039, -0.605482, 0.003419, -33.540366)">
      <stop offset="0" style="stop-color: rgb(255, 255, 255);"/>
      <stop offset="1" style="stop-color: rgb(233, 233, 233);"/>
    </radialGradient>
  </defs>
  <ellipse transform="matrix(0.972564, 0.232635, -0.000063, 1.028194, 30.439699, 19.902511)" cx="123.023" cy="88.842" rx="39.071" ry="21.397" style="fill: url(#gradient-0);" bx:origin="0.501 1.055"/>
  <ellipse transform="matrix(1, 0.000015, -0.000016, 1.000001, 68.672964, 52.061612)" cx="88.956" cy="90.217" rx="13.177" ry="13.177" style="fill: rgb(141, 141, 141);"/>
  <ellipse transform="matrix(1, 0.000023, -0.000023, 1, 61.103922, 33.134227)" cx="96.526" cy="109.144" rx="8.725" ry="8.725"/>
  <ellipse transform="matrix(0.972564, -0.232635, -0.000063, -1.028195, 371.685394, 19.354907)" cx="-123.023" cy="-88.842" rx="39.071" ry="21.397" style="fill: url(#gradient-1);" bx:origin="0.501 1.055"/>
  <ellipse transform="matrix(1, -0.000015, -0.000016, -1, 333.452036, 51.514034)" cx="-88.956" cy="-90.217" rx="13.177" ry="13.177" style="fill: rgb(141, 141, 141);"/>
  <ellipse transform="matrix(1.000001, -0.000023, -0.000024, -1.000001, 341.02117, 32.586516)" cx="-96.526" cy="-109.144" rx="8.725" ry="8.725"/>
</svg>