<?xml version="1.0" encoding="utf-8"?>
<svg viewBox="104.36 95.595 170.112 88" xmlns="http://www.w3.org/2000/svg" xmlns:bx="https://boxy-svg.com">
  <defs>
    <radialGradient id="gradient-0" gradientUnits="userSpaceOnUse" cx="120.613" cy="91.347" r="38.306" gradientTransform="matrix(0.737425, -0.000103, 0.000028, 1.047653, -0.002717, 58.034338)">
      <stop offset="0" style="stop-color: rgb(255, 255, 255);"/>
      <stop offset="1" style="stop-color: rgb(233, 233, 233);"/>
    </radialGradient>
    <radialGradient id="gradient-1" gradientUnits="userSpaceOnUse" cx="120.613" cy="91.347" r="38.306" gradientTransform="matrix(0.737425, -0.000103, 0.000028, 1.047653, -0.002677, 58.034231)">
      <stop offset="0" style="stop-color: rgb(255, 255, 255);"/>
      <stop offset="1" style="stop-color: rgb(233, 233, 233);"/>
    </radialGradient>
  </defs>
  <ellipse transform="matrix(0.999959, 0.008986, -0.000061, 1.00004, 60.041964, -15.170159)" cx="88.943" cy="153.721" rx="28.248" ry="37.023" style="fill: url(#gradient-0);" bx:origin="0.501 1.055"/>
  <ellipse transform="matrix(1, 0.000015, -0.000016, 1, 64.662481, 58.793758)" cx="88.956" cy="90.217" rx="13.177" ry="13.177" style="fill: rgb(141, 141, 141);"/>
  <ellipse transform="matrix(1.000001, 0.000023, -0.000024, 0.999999, 57.093561, 39.866614)" cx="96.526" cy="109.144" rx="8.725" ry="8.725"/>
  <ellipse transform="matrix(-0.999959, 0.008986, 0.000061, 1.00004, 318.789968, -14.692571)" cx="88.943" cy="153.721" rx="28.248" ry="37.023" style="fill: url(#gradient-1);" bx:origin="0.501 1.055"/>
  <ellipse transform="matrix(-1, 0.000015, 0.000016, 1, 314.169413, 59.271252)" cx="88.956" cy="90.217" rx="13.177" ry="13.177" style="fill: rgb(141, 141, 141);"/>
  <ellipse transform="matrix(-0.999999, 0.000024, 0.000023, 0.999999, 321.738386, 40.344)" cx="96.526" cy="109.144" rx="8.725" ry="8.725"/>
</svg>