<?xml version="1.0" encoding="utf-8"?>
<svg viewBox="104.36 95.595 199.535 60.005" xmlns="http://www.w3.org/2000/svg" xmlns:bx="https://boxy-svg.com">
  <defs>
    <radialGradient id="gradient-0" gradientUnits="userSpaceOnUse" cx="120.613" cy="91.347" r="38.306" gradientTransform="matrix(1, -0.000062, 0.000039, 0.622554, -0.00349, 34.486031)">
      <stop offset="0" style="stop-color: rgb(255, 255, 255);"/>
      <stop offset="1" style="stop-color: rgb(233, 233, 233);"/>
    </radialGradient>
    <radialGradient id="gradient-1" gradientUnits="userSpaceOnUse" cx="120.613" cy="91.347" r="38.306" gradientTransform="matrix(1, -0.000062, 0.000039, 0.622554, -0.003506, 34.486031)">
      <stop offset="0" style="stop-color: rgb(255, 255, 255);"/>
      <stop offset="1" style="stop-color: rgb(233, 233, 233);"/>
    </radialGradient>
  </defs>
  <ellipse transform="matrix(1, 0.000062, -0.000062, 1, 33.230979, 34.318541)" cx="120.613" cy="91.347" rx="38.306" ry="22" style="fill: url(#gradient-0);" bx:origin="0.501 1.055"/>
  <ellipse transform="matrix(1, 0.000016, -0.000016, 1, 70.320882, 38.417099)" cx="88.956" cy="90.217" rx="13.177" ry="13.177" style="fill: rgb(141, 141, 141);"/>
  <ellipse transform="matrix(1.000001, 0.000024, -0.000024, 0.999998, 62.751916, 19.489618)" cx="96.526" cy="109.144" rx="8.725" ry="8.725"/>
  <ellipse transform="matrix(-1, 0.000062, 0.000062, 1, 375.024017, 34.167532)" cx="120.613" cy="91.347" rx="38.306" ry="22" style="fill: url(#gradient-1);" bx:origin="0.501 1.055"/>
  <ellipse transform="matrix(-1, 0.000016, 0.000016, 1, 337.934092, 38.266037)" cx="88.956" cy="90.217" rx="13.177" ry="13.177" style="fill: rgb(141, 141, 141);"/>
  <ellipse transform="matrix(-1.000001, 0.000023, 0.000023, 1, 345.503279, 19.338641)" cx="96.526" cy="109.144" rx="8.725" ry="8.725"/>
</svg>