<?xml version="1.0" encoding="utf-8"?>
<svg viewBox="0 0 500 500" xmlns="http://www.w3.org/2000/svg" xmlns:bx="https://boxy-svg.com">
  <defs>
    <radialGradient id="gradient-0" gradientUnits="userSpaceOnUse" cx="120.613" cy="91.347" r="38.306" gradientTransform="matrix(2.364692, -0.000331, 0.00009, 3.359501, -0.008934, 186.098018)">
      <stop offset="0" style="stop-color: rgb(255, 255, 255);"/>
      <stop offset="1" style="stop-color: rgb(233, 233, 233);"/>
    </radialGradient>
    <radialGradient id="gradient-1" gradientUnits="userSpaceOnUse" cx="120.613" cy="91.347" r="38.306" gradientTransform="matrix(-2.36469, 0.000332, -0.000088, -3.3595, 0.008103, -186.097592)">
      <stop offset="0" style="stop-color: rgb(255, 255, 255);"/>
      <stop offset="1" style="stop-color: rgb(233, 233, 233);"/>
    </radialGradient>
  </defs>
  <ellipse transform="matrix(0.99996, 0.008986, -0.000061, 1.00004, -164.862526, -246.284443)" cx="285.213" cy="492.936" rx="90.583" ry="118.722" style="fill: url(#gradient-0);" bx:origin="0.501 1.055"/>
  <ellipse transform="matrix(1, 0.000014, -0.000016, 1, -195.127774, -54.823115)" cx="330.337" cy="335.019" rx="48.932" ry="48.932" style="fill: rgb(141, 141, 141);"/>
  <ellipse transform="matrix(1.000001, 0.000024, -0.000024, 1, -174.317989, -69.797894)" cx="309.53" cy="349.991" rx="27.979" ry="27.979"/>
  <ellipse transform="matrix(0.99996, -0.008986, -0.000061, -1.00004, 664.862248, -244.752887)" cx="-285.213" cy="-492.936" rx="90.583" ry="118.722" style="fill: url(#gradient-1);" bx:origin="0.501 1.055"/>
  <ellipse transform="matrix(1, 0.000014, -0.000016, 1, 34.464173, -53.29213)" cx="330.337" cy="335.019" rx="48.932" ry="48.932" style="fill: rgb(141, 141, 141);"/>
  <ellipse transform="matrix(1, -0.000024, -0.000023, -1, 674.316629, -68.267041)" cx="-309.529" cy="-349.991" rx="27.979" ry="27.979"/>
</svg>