<?xml version="1.0" encoding="utf-8"?>
<svg viewBox="22.025999069213867 13.824000358581543 147.63600158691406 188" xmlns="http://www.w3.org/2000/svg" xmlns:bx="https://boxy-svg.com">
  <defs>
    <bx:grid x="0" y="0" width="7.987" height="7.987"/>
    <radialGradient id="gradient-1" gradientUnits="userSpaceOnUse" cx="95.844" cy="107.825" r="65.818" gradientTransform="matrix(1, 0, 0, 1.317627, 0.000037, -34.248231)">
      <stop offset="0" style="stop-color: rgb(188, 188, 188);"/>
      <stop offset="1" style="stop-color: rgb(124, 124, 124);"/>
    </radialGradient>
  </defs>
  <path style="stroke: rgb(0, 0, 0); fill: url(#gradient-1);" d="M 95.844 193.585 C 94.623 194.623 83.542 192.225 74.988 187.623 C 65.994 182.783 57.77 178.728 51.837 170.447 C 44.733 160.531 39.404 145.775 37.104 136.096 C 34.912 126.873 30.853 114.992 30.369 97.451 C 29.886 79.96 28.963 77.031 35.42 61.31 C 41.365 46.835 47.139 43.49 58.15 34.116 C 69.831 24.173 86.259 21.95 95.844 21.829 C 105.429 21.708 121.857 23.931 133.538 33.875 C 144.549 43.248 150.323 46.593 156.268 61.068 C 162.725 76.79 161.802 79.719 161.319 97.209 C 160.835 114.75 156.776 126.632 154.584 135.854 C 152.284 145.533 146.955 160.289 139.851 170.206 C 133.918 178.487 125.694 182.542 116.7 187.381 C 108.146 191.983 97.065 194.623 95.844 193.585 Z"/>
</svg>