<?xml version="1.0" encoding="utf-8"?>
<svg viewBox="0 0 500 500" xmlns="http://www.w3.org/2000/svg" xmlns:bx="https://boxy-svg.com">
  <defs>
    <bx:grid x="0" y="0" width="7.987" height="7.987"/>
    <radialGradient id="gradient-2" gradientUnits="userSpaceOnUse" cx="95.844" cy="107.825" r="65.818" gradientTransform="matrix(1.760433, 0, 0, 3.501825, 80.87585, -128.138731)">
      <stop offset="0" style="stop-color: rgb(188, 188, 188);"/>
      <stop offset="1" style="stop-color: rgb(124, 124, 124);"/>
    </radialGradient>
  </defs>
  <path style="stroke: rgb(0, 0, 0); fill: url(#gradient-2);" d="M 250 21.748 C 227.9 21.748 183.613 26.734 164.288 38.965 C 143.966 51.827 116.831 68.681 103.429 90.69 C 87.377 117.044 81.045 159.198 75.846 184.922 C 70.894 209.432 124.352 184.924 127.964 231.416 C 131.764 280.346 94.352 339.743 115.789 378.816 C 135.865 415.418 138.96 428.553 169.995 452.062 C 199.76 474.611 228.741 478.692 250.002 478.217 C 271.259 478.312 300.243 474.232 330.008 451.683 C 361.043 428.173 364.135 415.038 384.215 378.437 C 405.648 339.364 368.238 279.967 372.04 231.037 C 375.651 184.544 429.108 209.052 424.154 184.542 C 418.955 158.819 412.625 116.664 396.575 90.31 C 383.171 68.301 356.036 51.448 335.712 38.586 C 316.389 26.354 272.1 21.748 250 21.748 Z" transform="matrix(-1, 0, 0, -1, 500.000248, 500.000405)"/>
</svg>