<?xml version="1.0" encoding="utf-8"?>
<svg viewBox="0 0 500 500" xmlns="http://www.w3.org/2000/svg" xmlns:bx="https://boxy-svg.com">
  <defs>
    <bx:grid x="0" y="0" width="7.987" height="7.987"/>
    <radialGradient id="gradient-1" gradientUnits="userSpaceOnUse" cx="95.844" cy="107.825" r="65.818" gradientTransform="matrix(2.310292, 0, 0, 3.843862, 41.42792, -160.359877)">
      <stop offset="0" style="stop-color: rgb(188, 188, 188);"/>
      <stop offset="1" style="stop-color: rgb(124, 124, 124);"/>
    </radialGradient>
  </defs>
  <path style="stroke: rgb(0, 0, 0); fill: url(#gradient-1);" d="M 250 459.87 C 221.948 459.87 181.339 415.119 156.81 401.527 C 131.016 387.235 92.953 510.524 75.94 486.068 C 55.566 456.784 68.344 363.072 85.593 338.125 C 110.769 301.708 124.945 297.149 124.215 246.191 C 123.415 189.865 49.503 120.63 116.978 107.762 C 168.755 97.886 59.477 1.794 108.528 11.6 C 154.739 20.838 209.655 75.001 250 75.224 C 290.346 74.812 345.259 20.65 391.471 11.412 C 440.522 1.607 331.249 97.697 383.024 107.573 C 450.498 120.441 376.585 189.676 375.783 246.002 C 375.055 296.961 389.231 301.52 414.409 337.936 C 431.655 362.885 444.435 456.595 424.061 485.879 C 407.045 510.336 368.985 387.047 343.188 401.339 C 318.662 414.93 278.048 459.87 250 459.87 Z"/>
</svg>