<?xml version="1.0" encoding="utf-8"?>
<svg viewBox="0 0 500 500" xmlns="http://www.w3.org/2000/svg">
  <defs>
    <radialGradient id="gradient-1" gradientUnits="userSpaceOnUse" cx="95.844" cy="107.825" r="65.818" gradientTransform="matrix(2.202203, 0, 0, 2.901681, 38.931722, -80.041054)">
      <stop offset="0" style="stop-color: rgb(188, 188, 188);"/>
      <stop offset="1" style="stop-color: rgb(124, 124, 124);"/>
    </radialGradient>
  </defs>
  <path style="stroke: rgb(0, 0, 0); fill: url(#gradient-1);" d="M 250 421.696 C 247.311 423.979 222.908 418.701 204.071 408.564 C 184.264 397.908 166.153 388.978 153.088 370.741 C 137.443 348.905 125.707 316.409 120.643 295.094 C 115.815 274.782 106.876 248.618 105.811 209.99 C 104.746 171.47 102.715 165.021 116.934 130.4 C 130.026 98.523 142.741 91.156 166.99 70.513 C 192.713 48.617 228.892 43.721 250 43.454 C 271.108 43.188 307.285 48.084 333.01 69.982 C 357.258 90.623 369.974 97.99 383.066 129.867 C 397.285 164.489 395.253 170.94 394.189 209.457 C 393.123 248.086 384.184 274.252 379.357 294.56 C 374.292 315.876 362.557 348.369 346.912 370.211 C 333.846 388.445 315.737 397.377 295.929 408.034 C 277.091 418.166 252.689 423.979 250 421.696 Z"/>
</svg>