<?xml version="1.0" encoding="utf-8"?>
<svg viewBox="7.974 -0.013 198.891 215.675" xmlns="http://www.w3.org/2000/svg" xmlns:bx="https://boxy-svg.com">
  <defs>
    <bx:grid x="0" y="0" width="7.987" height="7.987"/>
    <radialGradient id="gradient-2" gradientUnits="userSpaceOnUse" cx="95.844" cy="107.825" r="65.818" gradientTransform="matrix(0.779225, 0, 0, 1.550021, 32.558658, -59.551867)">
      <stop offset="0" style="stop-color: rgb(188, 188, 188);"/>
      <stop offset="1" style="stop-color: rgb(124, 124, 124);"/>
    </radialGradient>
  </defs>
  <path style="stroke: rgb(0, 0, 0); fill: url(#gradient-2);" d="M 107.419 6.793 C 97.637 6.793 78.034 9 69.48 14.414 C 60.485 20.107 48.474 27.567 42.542 37.309 C 35.437 48.974 32.634 67.633 30.333 79.019 C 28.141 89.868 51.803 79.02 53.402 99.599 C 55.084 121.257 38.524 147.548 48.013 164.843 C 56.899 181.044 58.269 186.858 72.006 197.264 C 85.181 207.245 98.009 209.051 107.42 208.841 C 116.829 208.883 129.658 207.077 142.833 197.096 C 156.57 186.69 157.939 180.876 166.827 164.675 C 176.314 147.38 159.755 121.089 161.438 99.431 C 163.036 78.852 186.698 89.7 184.505 78.851 C 182.204 67.465 179.402 48.806 172.298 37.141 C 166.365 27.399 154.354 19.939 145.358 14.246 C 136.805 8.832 117.201 6.793 107.419 6.793 Z" transform="matrix(-1, 0, 0, -1, 214.838143, 215.649629)"/>
</svg>