<?xml version="1.0" encoding="utf-8"?>
<svg viewBox="7.974 -0.013 198.891 215.675" xmlns="http://www.w3.org/2000/svg" xmlns:bx="https://boxy-svg.com">
  <defs>
    <bx:grid x="0" y="0" width="7.987" height="7.987"/>
    <radialGradient id="gradient-1" gradientUnits="userSpaceOnUse" cx="95.844" cy="107.825" r="65.818" gradientTransform="matrix(0.920284, 0, 0, 1.531169, 24.336446, -55.638985)">
      <stop offset="0" style="stop-color: rgb(188, 188, 188);"/>
      <stop offset="1" style="stop-color: rgb(124, 124, 124);"/>
    </radialGradient>
  </defs>
  <path style="stroke: rgb(0, 0, 0); fill: url(#gradient-1);" d="M 107.419 191.424 C 96.245 191.424 80.069 173.598 70.298 168.184 C 60.023 162.491 44.861 211.602 38.084 201.86 C 29.968 190.195 35.058 152.866 41.929 142.928 C 51.958 128.422 57.605 126.606 57.314 106.307 C 56.995 83.87 27.553 56.291 54.431 51.165 C 75.056 47.231 31.526 8.954 51.065 12.86 C 69.473 16.54 91.348 38.115 107.419 38.204 C 123.491 38.04 145.365 16.465 163.773 12.785 C 183.312 8.879 139.784 47.156 160.408 51.09 C 187.286 56.216 157.843 83.795 157.524 106.232 C 157.234 126.531 162.881 128.347 172.91 142.853 C 179.78 152.791 184.871 190.12 176.755 201.785 C 169.977 211.527 154.816 162.416 144.54 168.109 C 134.77 173.523 118.592 191.424 107.419 191.424 Z"/>
</svg>